<svg xmlns="http://www.w3.org/2000/svg" xmlns:xlink="http://www.w3.org/1999/xlink" version="1.1" x="0px" y="0px" viewBox="0 0 100 125" enable-background="new 0 0 100 100" xml:space="preserve"><path fill="#1F2833" d="M80.085,67.07c-0.018,0.04-0.039,0.08-0.064,0.119s-0.055,0.077-0.087,0.114c-0.033,0.037-0.069,0.072-0.109,0.107  L52.565,91.056c-0.297,0.258-0.652,0.451-1.042,0.581c-0.391,0.131-0.813,0.196-1.243,0.196c-0.43,0.001-0.864-0.064-1.278-0.193  s-0.806-0.322-1.149-0.579L5.453,59.427c-0.046-0.033-0.086-0.068-0.122-0.104c-0.035-0.036-0.066-0.073-0.094-0.112  c-0.025-0.038-0.049-0.077-0.066-0.117c-0.018-0.039-0.031-0.08-0.04-0.121c0.071,0.323,0.144,0.646,0.214,0.97  c0.01,0.042,0.023,0.082,0.041,0.123c0.018,0.04,0.04,0.079,0.066,0.117c0.027,0.039,0.059,0.076,0.094,0.112  c0.035,0.037,0.076,0.072,0.121,0.105l42.121,31.764c0.341,0.257,0.729,0.45,1.139,0.58c0.41,0.129,0.842,0.193,1.268,0.193  c0.426-0.001,0.845-0.066,1.232-0.196c0.386-0.131,0.739-0.324,1.033-0.582L79.559,68.43c0.039-0.035,0.076-0.071,0.108-0.108  s0.062-0.075,0.087-0.114c0.024-0.039,0.046-0.079,0.064-0.12c0.018-0.041,0.032-0.082,0.044-0.124  c0.044-0.169,0.088-0.338,0.133-0.507c0.026-0.102,0.054-0.203,0.08-0.306c0.008-0.03,0.019-0.071,0.026-0.102  c0.009-0.031,0.02-0.071,0.027-0.103C80.118,66.988,80.104,67.029,80.085,67.07z"/><path d="M94.856,16.476c-0.085-0.229-0.205-0.434-0.355-0.61c-0.15-0.175-0.331-0.321-0.537-0.428  c-0.144-0.075-0.288-0.149-0.432-0.224c0.014,0.008,0.027,0.017,0.042,0.024c-0.173-0.096-0.362-0.165-0.569-0.2L46.27,7.075  c-0.165-0.027-0.335-0.004-0.5,0.063s-0.325,0.177-0.472,0.322c-0.147,0.144-0.281,0.323-0.394,0.528  c-0.112,0.204-0.202,0.436-0.263,0.684l-8.57,35.179c-0.044,0.182-0.068,0.365-0.076,0.545c-0.2-0.032-0.408-0.051-0.62-0.051  c-0.245-0.001-0.492,0.021-0.727,0.062c-0.234,0.043-0.457,0.106-0.653,0.191L6.175,56.7c-0.281,0.122-0.518,0.265-0.701,0.417  c-0.186,0.153-0.318,0.316-0.396,0.48s-0.099,0.33-0.058,0.486c0.041,0.157,0.146,0.305,0.316,0.434L47.838,90.45  c0.345,0.26,0.738,0.455,1.152,0.585c0.416,0.131,0.853,0.196,1.283,0.196c0.431-0.001,0.855-0.067,1.247-0.198  c0.391-0.132,0.747-0.327,1.045-0.588L79.884,66.57c0.122-0.106,0.206-0.224,0.26-0.348c0.013-0.003,0.026-0.005,0.039-0.008  c-0.005,0.002-0.01,0.004-0.015,0.005c0.17-0.04,0.34-0.081,0.51-0.121c0.159-0.038,0.313-0.101,0.458-0.186  c0.145-0.083,0.279-0.189,0.402-0.316c0.122-0.128,0.23-0.274,0.323-0.44c0.092-0.166,0.168-0.35,0.224-0.549L94.9,18.026  c0.076-0.277,0.107-0.551,0.099-0.812S94.94,16.702,94.856,16.476z M67.464,65.412c-0.011,0.004-0.022,0.008-0.034,0.012  c-0.03,0.011-0.063,0.02-0.098,0.026c-0.013,0.002-0.024,0.005-0.036,0.007c-0.047,0.007-0.095,0.012-0.145,0.011  c-0.004,0-0.009,0-0.013,0c-0.046-0.001-0.092-0.005-0.139-0.012c-0.028-0.004-0.058-0.009-0.086-0.015  c-0.004-0.001-0.009-0.001-0.013-0.002c-0.036-0.009-0.072-0.02-0.107-0.031c-0.008-0.003-0.017-0.007-0.025-0.01  c-0.035-0.013-0.07-0.027-0.104-0.045l-1.606-0.819c-0.073-0.037-0.133-0.08-0.178-0.126c-0.044-0.046-0.074-0.095-0.089-0.144  c-0.015-0.048-0.014-0.097,0.003-0.143c0.018-0.045,0.051-0.088,0.101-0.125l1.084-0.793c0.05-0.036,0.111-0.063,0.181-0.081  c0.069-0.019,0.146-0.027,0.226-0.027s0.162,0.009,0.243,0.026s0.16,0.045,0.233,0.081l1.598,0.793  c0.074,0.037,0.135,0.079,0.181,0.125c0.047,0.046,0.079,0.095,0.096,0.144c0.017,0.048,0.019,0.097,0.004,0.143  c-0.016,0.046-0.047,0.09-0.096,0.127l-1.075,0.819C67.539,65.377,67.503,65.396,67.464,65.412z M36.897,57.841  c-0.026-0.039-0.039-0.08-0.037-0.121s0.018-0.082,0.048-0.121c0.03-0.038,0.074-0.074,0.133-0.105l1.25-0.673  c0.058-0.03,0.123-0.054,0.192-0.068c0.069-0.016,0.144-0.023,0.217-0.023s0.147,0.008,0.216,0.022  c0.069,0.016,0.134,0.038,0.189,0.069l1.221,0.672c0.057,0.031,0.099,0.067,0.127,0.106c0.029,0.039,0.043,0.08,0.043,0.121  s-0.015,0.082-0.043,0.121s-0.071,0.075-0.129,0.107l-1.25,0.692c-0.059,0.032-0.125,0.057-0.196,0.073  c-0.071,0.016-0.146,0.023-0.223,0.023c-0.075,0-0.15-0.008-0.221-0.023c-0.071-0.017-0.137-0.041-0.193-0.073l-1.221-0.693  C36.965,57.916,36.924,57.88,36.897,57.841z M27.99,55.307c-0.071,0.015-0.145,0.022-0.217,0.022s-0.143-0.008-0.208-0.022  s-0.125-0.036-0.175-0.065l-1.072-0.634c-0.049-0.028-0.083-0.062-0.104-0.098s-0.026-0.073-0.019-0.111  c0.007-0.037,0.028-0.074,0.062-0.11c0.034-0.035,0.082-0.068,0.142-0.097l1.288-0.614c0.059-0.028,0.125-0.05,0.193-0.063  s0.14-0.021,0.21-0.021c0.071,0,0.14,0.007,0.203,0.021c0.064,0.014,0.123,0.035,0.172,0.063l1.075,0.615  c0.05,0.028,0.086,0.062,0.107,0.097c0.022,0.035,0.03,0.072,0.024,0.11s-0.024,0.075-0.057,0.11  c-0.033,0.036-0.079,0.069-0.138,0.098l-1.291,0.633C28.128,55.27,28.061,55.292,27.99,55.307z M32.638,50.19  c0.004-0.033,0.021-0.066,0.05-0.098c0.029-0.031,0.071-0.061,0.125-0.086l1.161-0.545c0.053-0.024,0.113-0.043,0.177-0.056  c0.063-0.012,0.13-0.019,0.196-0.019s0.132,0.007,0.192,0.019c0.062,0.013,0.118,0.031,0.167,0.057l1.063,0.546  c0.049,0.024,0.085,0.054,0.108,0.085s0.034,0.064,0.032,0.099c-0.002,0.033-0.018,0.066-0.045,0.098s-0.068,0.061-0.121,0.086  l-1.162,0.561c-0.054,0.025-0.115,0.045-0.181,0.059c-0.065,0.013-0.134,0.02-0.201,0.02c-0.068,0-0.136-0.007-0.198-0.02  s-0.12-0.032-0.17-0.059l-1.062-0.561c-0.049-0.026-0.084-0.056-0.105-0.087C32.643,50.258,32.635,50.224,32.638,50.19z   M36.016,47.301c0.018-0.02,0.043-0.037,0.076-0.053l0.486-0.224c0.034-0.016,0.072-0.027,0.112-0.034  c0.041-0.008,0.083-0.012,0.126-0.012c0.042,0,0.085,0.004,0.124,0.012c0.04,0.008,0.077,0.02,0.108,0.035l1.275,0.619  c0.032,0.016,0.057,0.034,0.072,0.054c0.017,0.02,0.023,0.04,0.023,0.061c-0.001,0.021-0.01,0.041-0.026,0.061  c-0.018,0.02-0.043,0.037-0.076,0.054l-0.486,0.229c-0.033,0.016-0.072,0.027-0.113,0.036c-0.041,0.008-0.084,0.012-0.128,0.012  c-0.043,0-0.086-0.004-0.127-0.012c-0.04-0.009-0.078-0.021-0.11-0.036l-1.275-0.629c-0.031-0.016-0.055-0.034-0.07-0.053  c-0.015-0.02-0.021-0.04-0.02-0.061C35.988,47.34,35.998,47.32,36.016,47.301z M40.501,48.721c0.017,0.021,0.025,0.042,0.025,0.062  c0,0.021-0.008,0.043-0.024,0.063c-0.017,0.02-0.042,0.038-0.075,0.055l-0.486,0.237c-0.033,0.017-0.072,0.028-0.114,0.037  c-0.041,0.008-0.085,0.012-0.13,0.012c-0.044,0-0.088-0.004-0.129-0.013c-0.042-0.008-0.08-0.021-0.114-0.037l-1.315-0.648  c-0.032-0.016-0.057-0.034-0.072-0.054c-0.016-0.021-0.023-0.041-0.022-0.062c0-0.021,0.01-0.042,0.026-0.062  c0.018-0.021,0.043-0.038,0.076-0.055l0.486-0.23c0.034-0.016,0.072-0.027,0.113-0.036c0.041-0.008,0.084-0.012,0.127-0.012  c0.044,0,0.087,0.005,0.127,0.013c0.041,0.008,0.078,0.02,0.111,0.035l1.315,0.64C40.459,48.683,40.484,48.701,40.501,48.721z   M44.913,50.866c0.02,0.021,0.029,0.044,0.031,0.066c0.001,0.022-0.006,0.045-0.021,0.066c-0.017,0.021-0.041,0.042-0.074,0.06  l-0.486,0.253c-0.033,0.017-0.072,0.03-0.114,0.039s-0.087,0.013-0.133,0.013s-0.091-0.004-0.134-0.013  c-0.044-0.009-0.085-0.022-0.12-0.04l-1.402-0.69c-0.035-0.018-0.062-0.037-0.079-0.059s-0.026-0.044-0.027-0.066  c0-0.021,0.008-0.044,0.023-0.065c0.017-0.021,0.042-0.04,0.075-0.058l0.486-0.246c0.033-0.017,0.072-0.029,0.114-0.038  c0.041-0.008,0.086-0.013,0.13-0.013c0.045,0,0.09,0.005,0.132,0.013c0.042,0.009,0.082,0.021,0.117,0.038l1.401,0.682  C44.867,50.825,44.895,50.845,44.913,50.866z M47.229,51.991c0.02,0.022,0.031,0.046,0.033,0.069  c0.003,0.023-0.004,0.047-0.019,0.069c-0.016,0.021-0.04,0.043-0.073,0.061l-0.485,0.262c-0.033,0.018-0.072,0.031-0.115,0.04  s-0.089,0.014-0.135,0.014c-0.047,0-0.093-0.005-0.138-0.014c-0.044-0.01-0.086-0.023-0.123-0.041l-1.448-0.714  c-0.036-0.018-0.063-0.038-0.082-0.061c-0.019-0.021-0.029-0.045-0.03-0.068c-0.001-0.022,0.006-0.046,0.021-0.067  s0.041-0.042,0.074-0.06l0.486-0.254c0.033-0.018,0.072-0.031,0.114-0.04s0.087-0.013,0.132-0.013c0.046,0,0.091,0.005,0.135,0.014  c0.043,0.008,0.084,0.021,0.119,0.039l1.448,0.703C47.18,51.948,47.208,51.97,47.229,51.991z M52.094,54.356  c0.022,0.024,0.035,0.049,0.039,0.074c0.005,0.024,0,0.05-0.015,0.073s-0.038,0.046-0.071,0.065l-0.482,0.279  c-0.033,0.02-0.073,0.034-0.116,0.044s-0.091,0.015-0.139,0.015c-0.047,0-0.096-0.005-0.143-0.015  c-0.046-0.01-0.09-0.024-0.13-0.044l-1.549-0.764c-0.038-0.019-0.068-0.041-0.089-0.064c-0.021-0.023-0.033-0.048-0.036-0.072  c-0.003-0.025,0.003-0.05,0.018-0.072c0.016-0.023,0.039-0.045,0.072-0.064l0.484-0.271c0.033-0.019,0.072-0.032,0.115-0.042  c0.043-0.009,0.089-0.014,0.136-0.014s0.094,0.005,0.14,0.014c0.045,0.01,0.088,0.023,0.127,0.042l1.547,0.752  C52.041,54.312,52.072,54.333,52.094,54.356z M57.796,57.27c0.044-0.011,0.092-0.016,0.142-0.016c0.049,0,0.1,0.005,0.148,0.016  s0.096,0.026,0.139,0.047l1.716,0.834c0.044,0.021,0.079,0.046,0.104,0.072c0.026,0.025,0.043,0.054,0.05,0.081  c0.008,0.028,0.006,0.056-0.007,0.082c-0.012,0.026-0.034,0.051-0.067,0.072l-0.476,0.311c-0.033,0.021-0.073,0.038-0.117,0.049  c-0.045,0.011-0.094,0.016-0.145,0.016c-0.05,0-0.102-0.005-0.151-0.016s-0.099-0.027-0.143-0.049l-1.72-0.848  c-0.043-0.021-0.076-0.045-0.102-0.071c-0.024-0.025-0.04-0.054-0.046-0.081s-0.003-0.055,0.011-0.08  c0.013-0.025,0.035-0.05,0.068-0.07l0.479-0.302C57.713,57.296,57.752,57.28,57.796,57.27z M60.562,58.617  c0.045-0.011,0.094-0.016,0.144-0.016s0.102,0.005,0.151,0.016c0.051,0.011,0.099,0.027,0.143,0.048l1.779,0.865  c0.045,0.021,0.082,0.047,0.109,0.074s0.046,0.056,0.055,0.085s0.007,0.058-0.004,0.085c-0.012,0.027-0.033,0.053-0.065,0.075  l-0.473,0.322c-0.033,0.022-0.073,0.039-0.118,0.05c-0.045,0.012-0.095,0.017-0.146,0.017s-0.104-0.006-0.156-0.017  c-0.051-0.012-0.102-0.028-0.146-0.051l-1.783-0.879c-0.044-0.021-0.079-0.047-0.105-0.073c-0.025-0.027-0.042-0.056-0.05-0.084  s-0.005-0.057,0.008-0.084c0.012-0.026,0.034-0.052,0.066-0.073l0.476-0.312C60.479,58.644,60.519,58.628,60.562,58.617z   M63.974,63.632c-0.011,0.004-0.022,0.008-0.034,0.012c-0.026,0.009-0.054,0.018-0.082,0.023c-0.015,0.003-0.029,0.006-0.044,0.008  c-0.028,0.005-0.058,0.008-0.087,0.01c-0.016,0.001-0.03,0.003-0.046,0.003c-0.035,0.001-0.071-0.001-0.107-0.004  c-0.01-0.001-0.021-0.001-0.031-0.002c-0.007,0-0.014-0.002-0.02-0.003c-0.03-0.004-0.06-0.009-0.09-0.015  c-0.013-0.003-0.024-0.006-0.037-0.009c-0.025-0.007-0.051-0.014-0.075-0.021c-0.011-0.004-0.022-0.008-0.034-0.012  c-0.034-0.013-0.068-0.026-0.101-0.043l-1.539-0.785c-0.069-0.036-0.126-0.077-0.168-0.121s-0.069-0.091-0.081-0.137  c-0.013-0.047-0.01-0.093,0.009-0.137s0.053-0.085,0.104-0.12l1.094-0.76c0.05-0.035,0.111-0.061,0.18-0.078  s0.145-0.026,0.223-0.026s0.158,0.009,0.237,0.025c0.078,0.018,0.154,0.043,0.225,0.078l1.531,0.76  c0.071,0.035,0.129,0.076,0.173,0.12c0.043,0.044,0.073,0.09,0.087,0.137c0.015,0.047,0.014,0.094-0.003,0.138  s-0.049,0.085-0.099,0.121l-1.086,0.785C64.043,63.6,64.009,63.617,63.974,63.632z M56.451,65.823l-1.515-0.829  c-0.068-0.038-0.123-0.082-0.162-0.128c-0.039-0.047-0.063-0.096-0.072-0.145c-0.009-0.05-0.001-0.099,0.021-0.145  c0.023-0.046,0.062-0.09,0.117-0.127l1.189-0.802c0.054-0.037,0.119-0.064,0.191-0.083c0.071-0.018,0.149-0.027,0.229-0.027  s0.162,0.01,0.241,0.027c0.079,0.019,0.155,0.046,0.224,0.082l1.51,0.803c0.07,0.037,0.126,0.08,0.167,0.126  s0.068,0.096,0.079,0.145s0.006,0.099-0.015,0.145c-0.021,0.047-0.058,0.09-0.111,0.128l-1.184,0.829  c-0.055,0.039-0.122,0.068-0.195,0.087c-0.074,0.02-0.154,0.029-0.237,0.029c-0.082,0-0.167-0.01-0.248-0.028  C56.601,65.891,56.522,65.861,56.451,65.823z M53.979,64.171c-0.072,0.019-0.152,0.027-0.232,0.027  c-0.081,0-0.163-0.009-0.242-0.027s-0.154-0.046-0.222-0.083l-1.453-0.796c-0.066-0.036-0.118-0.078-0.154-0.122  c-0.037-0.045-0.059-0.092-0.065-0.139c-0.007-0.048,0.002-0.095,0.026-0.139c0.023-0.044,0.063-0.086,0.119-0.121l1.195-0.771  c0.054-0.035,0.119-0.062,0.19-0.079c0.07-0.017,0.147-0.025,0.227-0.025c0.078,0,0.158,0.009,0.235,0.025  c0.076,0.018,0.15,0.044,0.216,0.079l1.448,0.77c0.067,0.036,0.121,0.077,0.159,0.122c0.039,0.044,0.063,0.091,0.072,0.138  c0.009,0.048,0.002,0.095-0.02,0.14c-0.022,0.044-0.061,0.086-0.114,0.122l-1.19,0.795C54.118,64.124,54.052,64.152,53.979,64.171z   M50.456,62.503c-0.077-0.018-0.15-0.045-0.215-0.08l-1.395-0.764c-0.063-0.034-0.112-0.074-0.147-0.117  c-0.034-0.043-0.054-0.088-0.059-0.134c-0.005-0.045,0.006-0.09,0.031-0.133c0.024-0.042,0.065-0.082,0.121-0.116l1.199-0.739  c0.055-0.034,0.119-0.059,0.189-0.076c0.07-0.017,0.146-0.024,0.223-0.024c0.077,0,0.155,0.008,0.23,0.024  c0.074,0.018,0.146,0.042,0.209,0.076l1.391,0.739c0.065,0.034,0.115,0.074,0.151,0.116c0.037,0.043,0.059,0.088,0.065,0.133  c0.007,0.046-0.001,0.091-0.024,0.134s-0.062,0.083-0.116,0.117l-1.196,0.764c-0.056,0.035-0.121,0.062-0.193,0.08  s-0.15,0.026-0.229,0.026S50.532,62.521,50.456,62.503z M47.985,60.901c-0.071,0.017-0.148,0.025-0.226,0.025  c-0.078,0-0.156-0.009-0.23-0.025c-0.075-0.017-0.146-0.043-0.208-0.077l-1.34-0.732c-0.061-0.034-0.107-0.072-0.14-0.113  s-0.05-0.085-0.053-0.128c-0.003-0.044,0.009-0.087,0.035-0.128s0.067-0.079,0.123-0.112l1.202-0.71  c0.055-0.033,0.119-0.057,0.188-0.073s0.145-0.024,0.22-0.024s0.152,0.008,0.225,0.024s0.142,0.041,0.202,0.073l1.337,0.711  c0.062,0.032,0.11,0.07,0.145,0.111s0.054,0.084,0.06,0.128c0.005,0.043-0.005,0.087-0.029,0.128s-0.063,0.08-0.118,0.113  l-1.2,0.732C48.122,60.858,48.057,60.885,47.985,60.901z M38.108,48.959c0.062,0.012,0.119,0.03,0.168,0.055l1.085,0.539  c0.05,0.024,0.088,0.054,0.112,0.084c0.025,0.031,0.037,0.064,0.037,0.097c-0.001,0.033-0.015,0.066-0.04,0.098  c-0.026,0.03-0.064,0.06-0.116,0.085l-1.124,0.552c-0.053,0.025-0.112,0.045-0.176,0.058s-0.131,0.02-0.199,0.02  c-0.066,0-0.134-0.007-0.196-0.02c-0.063-0.013-0.122-0.032-0.172-0.058l-1.084-0.554c-0.05-0.024-0.086-0.054-0.109-0.085  s-0.034-0.063-0.032-0.097c0.002-0.032,0.017-0.065,0.043-0.097c0.028-0.03,0.067-0.06,0.12-0.084l1.123-0.537  c0.052-0.025,0.11-0.043,0.173-0.056c0.062-0.012,0.128-0.019,0.194-0.019S38.047,48.946,38.108,48.959z M54.082,56.859l1.356,0.673  c0.062,0.031,0.113,0.068,0.149,0.106c0.036,0.039,0.059,0.08,0.067,0.121c0.008,0.042,0.002,0.083-0.019,0.122  s-0.056,0.075-0.106,0.107l-1.11,0.693c-0.051,0.032-0.113,0.056-0.181,0.072c-0.068,0.016-0.143,0.024-0.218,0.023  c-0.075,0-0.152-0.008-0.227-0.023c-0.074-0.017-0.145-0.041-0.209-0.073l-1.359-0.694c-0.062-0.031-0.11-0.067-0.145-0.106  c-0.035-0.039-0.056-0.08-0.062-0.121c-0.007-0.041,0.001-0.082,0.023-0.121s0.06-0.074,0.11-0.105l1.114-0.673  c0.051-0.031,0.111-0.054,0.178-0.069s0.139-0.022,0.213-0.023c0.073,0,0.148,0.008,0.221,0.023  C53.951,56.806,54.021,56.829,54.082,56.859z M60.537,61.957c-0.069,0.018-0.146,0.026-0.225,0.026  c-0.078,0-0.159-0.009-0.237-0.026s-0.154-0.044-0.223-0.079l-1.476-0.752c-0.067-0.034-0.12-0.074-0.16-0.116  c-0.039-0.042-0.064-0.087-0.075-0.132c-0.01-0.045-0.006-0.09,0.015-0.132c0.02-0.041,0.055-0.081,0.105-0.114l1.103-0.729  c0.05-0.033,0.111-0.058,0.18-0.075c0.067-0.017,0.143-0.024,0.219-0.024c0.077,0,0.155,0.008,0.232,0.024  c0.076,0.018,0.15,0.042,0.217,0.075l1.47,0.729c0.068,0.033,0.123,0.073,0.164,0.114c0.041,0.042,0.067,0.087,0.08,0.132  c0.012,0.045,0.01,0.09-0.009,0.132c-0.018,0.042-0.052,0.082-0.102,0.116l-1.096,0.752C60.669,61.913,60.606,61.939,60.537,61.957z   M58.713,59.414c-0.02,0.04-0.054,0.078-0.104,0.111l-1.104,0.723c-0.052,0.033-0.114,0.059-0.183,0.075s-0.144,0.025-0.221,0.025  s-0.155-0.009-0.231-0.025s-0.149-0.042-0.215-0.075l-1.416-0.723c-0.064-0.033-0.115-0.071-0.152-0.111  c-0.037-0.041-0.061-0.084-0.068-0.127c-0.009-0.043-0.002-0.086,0.019-0.126c0.021-0.04,0.058-0.078,0.108-0.11l1.109-0.7  c0.05-0.031,0.111-0.056,0.179-0.071c0.067-0.017,0.141-0.024,0.216-0.024s0.152,0.008,0.227,0.024  c0.073,0.016,0.146,0.04,0.21,0.071l1.41,0.7c0.065,0.033,0.118,0.07,0.156,0.11c0.039,0.041,0.063,0.084,0.073,0.126  C58.737,59.331,58.732,59.373,58.713,59.414z M54.96,62.06c-0.077-0.018-0.151-0.044-0.218-0.079l-1.429-0.755  c-0.065-0.034-0.116-0.074-0.152-0.116c-0.037-0.042-0.059-0.087-0.066-0.132c-0.007-0.045,0.001-0.09,0.023-0.132  c0.023-0.042,0.062-0.081,0.114-0.115l1.151-0.731c0.052-0.033,0.115-0.059,0.184-0.075c0.069-0.017,0.145-0.024,0.221-0.024  s0.154,0.008,0.229,0.024s0.147,0.042,0.213,0.075l1.425,0.731c0.065,0.034,0.118,0.073,0.156,0.115  c0.039,0.042,0.063,0.087,0.072,0.131c0.01,0.045,0.005,0.09-0.017,0.132c-0.021,0.043-0.057,0.082-0.108,0.116l-1.146,0.755  c-0.054,0.035-0.118,0.062-0.188,0.079s-0.147,0.026-0.227,0.026C55.118,62.086,55.038,62.077,54.96,62.06z M52.434,60.485  c-0.07,0.017-0.146,0.025-0.224,0.025s-0.156-0.009-0.231-0.025s-0.146-0.042-0.21-0.075l-1.374-0.727  c-0.062-0.032-0.111-0.07-0.146-0.111s-0.055-0.084-0.061-0.127c-0.005-0.044,0.004-0.087,0.027-0.127  c0.024-0.041,0.062-0.078,0.116-0.111l1.155-0.703c0.053-0.032,0.116-0.056,0.185-0.072c0.068-0.016,0.142-0.023,0.217-0.023  s0.152,0.009,0.226,0.024s0.143,0.04,0.205,0.072l1.37,0.703c0.063,0.032,0.114,0.07,0.149,0.111  c0.037,0.04,0.059,0.083,0.066,0.126s0.001,0.086-0.021,0.127c-0.021,0.04-0.059,0.078-0.111,0.111l-1.151,0.726  C52.567,60.442,52.503,60.468,52.434,60.485z M49.559,58.972c-0.069,0.017-0.145,0.024-0.221,0.024s-0.153-0.008-0.227-0.024  c-0.073-0.016-0.143-0.04-0.204-0.073l-1.32-0.697c-0.061-0.032-0.107-0.068-0.139-0.108c-0.032-0.038-0.051-0.08-0.055-0.121  c-0.003-0.042,0.007-0.084,0.032-0.122c0.024-0.039,0.064-0.075,0.118-0.106l1.158-0.677c0.053-0.031,0.115-0.054,0.183-0.069  c0.068-0.016,0.141-0.023,0.214-0.023c0.074,0,0.148,0.008,0.22,0.023s0.139,0.038,0.199,0.069l1.318,0.677  c0.062,0.031,0.109,0.067,0.144,0.106c0.033,0.039,0.054,0.08,0.061,0.122c0.006,0.041-0.003,0.083-0.025,0.122  c-0.023,0.039-0.061,0.076-0.113,0.107l-1.156,0.697C49.691,58.932,49.628,58.956,49.559,58.972z M42.157,55.3  c-0.028-0.036-0.043-0.074-0.044-0.113c-0.001-0.038,0.013-0.076,0.039-0.112s0.067-0.07,0.121-0.099l1.162-0.628  c0.054-0.029,0.115-0.051,0.182-0.064c0.065-0.015,0.137-0.021,0.207-0.021c0.071,0,0.143,0.007,0.21,0.021s0.132,0.035,0.188,0.064  l1.224,0.628c0.057,0.029,0.101,0.063,0.131,0.1c0.029,0.035,0.046,0.074,0.049,0.112s-0.008,0.077-0.033,0.113  c-0.024,0.036-0.063,0.069-0.116,0.1l-1.162,0.646c-0.054,0.03-0.117,0.053-0.185,0.067c-0.067,0.016-0.141,0.022-0.213,0.022  c-0.073,0-0.146-0.007-0.216-0.022c-0.069-0.015-0.135-0.037-0.191-0.067L42.283,55.4C42.228,55.37,42.186,55.337,42.157,55.3z   M37.207,52.6c0.002-0.035,0.017-0.071,0.045-0.104c0.028-0.034,0.069-0.065,0.123-0.093l1.163-0.584  c0.053-0.026,0.114-0.046,0.179-0.06s0.134-0.02,0.202-0.02s0.137,0.007,0.201,0.02c0.064,0.014,0.124,0.033,0.176,0.061l1.14,0.585  c0.053,0.026,0.093,0.058,0.119,0.092c0.026,0.033,0.04,0.069,0.04,0.104c0.001,0.036-0.013,0.072-0.039,0.105  c-0.025,0.034-0.065,0.065-0.118,0.093l-1.164,0.601c-0.054,0.028-0.116,0.049-0.183,0.063c-0.066,0.014-0.138,0.021-0.208,0.021  s-0.141-0.007-0.207-0.021c-0.065-0.015-0.127-0.035-0.18-0.063l-1.139-0.602c-0.053-0.027-0.091-0.059-0.115-0.093  C37.217,52.672,37.205,52.636,37.207,52.6z M39.657,53.761c0.027-0.034,0.068-0.067,0.122-0.096l1.163-0.605  c0.054-0.027,0.114-0.048,0.181-0.062c0.065-0.014,0.135-0.021,0.205-0.021c0.069,0,0.14,0.008,0.206,0.021  c0.065,0.014,0.128,0.034,0.182,0.062l1.18,0.606c0.055,0.028,0.097,0.061,0.125,0.096c0.028,0.034,0.043,0.071,0.044,0.108  c0.002,0.037-0.01,0.074-0.036,0.109c-0.025,0.034-0.064,0.067-0.117,0.096l-1.163,0.623c-0.054,0.028-0.117,0.051-0.185,0.065  c-0.066,0.015-0.139,0.021-0.21,0.021s-0.144-0.007-0.211-0.021s-0.131-0.036-0.186-0.065l-1.181-0.623  c-0.054-0.028-0.095-0.062-0.121-0.097s-0.04-0.072-0.039-0.109C39.616,53.833,39.63,53.796,39.657,53.761z M44.739,56.436  c0.026-0.037,0.066-0.072,0.12-0.103l1.161-0.651c0.053-0.03,0.115-0.052,0.182-0.066c0.067-0.016,0.139-0.022,0.211-0.022  s0.146,0.007,0.215,0.022c0.069,0.015,0.135,0.037,0.192,0.066l1.271,0.652c0.059,0.029,0.104,0.064,0.136,0.103  c0.032,0.037,0.051,0.077,0.056,0.117c0.004,0.04-0.006,0.08-0.029,0.117c-0.023,0.038-0.062,0.073-0.115,0.104l-1.159,0.672  c-0.054,0.031-0.117,0.055-0.186,0.07c-0.069,0.015-0.143,0.023-0.218,0.023c-0.074,0-0.149-0.009-0.221-0.023  c-0.071-0.016-0.139-0.039-0.197-0.07l-1.272-0.672c-0.058-0.031-0.102-0.066-0.132-0.104c-0.03-0.038-0.047-0.078-0.049-0.118  S44.714,56.473,44.739,56.436z M52.679,56.408c-0.021,0.038-0.058,0.073-0.108,0.104l-1.115,0.666  c-0.052,0.031-0.113,0.055-0.181,0.069c-0.067,0.016-0.14,0.023-0.214,0.023s-0.149-0.008-0.221-0.023  c-0.071-0.015-0.14-0.038-0.2-0.069l-1.308-0.667c-0.06-0.03-0.105-0.065-0.138-0.103s-0.051-0.077-0.056-0.116  c-0.005-0.04,0.004-0.079,0.027-0.116s0.061-0.072,0.113-0.103l1.117-0.646c0.051-0.029,0.111-0.052,0.178-0.066  c0.065-0.015,0.137-0.021,0.209-0.022c0.072,0,0.146,0.008,0.215,0.022c0.07,0.015,0.138,0.036,0.197,0.066l1.304,0.646  c0.061,0.03,0.107,0.065,0.142,0.103s0.055,0.076,0.061,0.116C52.708,56.331,52.7,56.371,52.679,56.408z M49.835,54.992  c-0.022,0.036-0.059,0.07-0.11,0.1l-1.118,0.641c-0.052,0.03-0.113,0.052-0.18,0.067c-0.067,0.015-0.139,0.021-0.211,0.021  S48.07,55.814,48,55.8c-0.069-0.016-0.136-0.038-0.194-0.067l-1.257-0.642c-0.058-0.029-0.102-0.062-0.132-0.099  s-0.047-0.074-0.051-0.112c-0.003-0.038,0.008-0.076,0.032-0.111c0.024-0.036,0.062-0.069,0.114-0.099l1.121-0.622  c0.051-0.028,0.111-0.05,0.176-0.064c0.065-0.014,0.136-0.021,0.206-0.021c0.071,0,0.143,0.008,0.211,0.021s0.133,0.035,0.189,0.063  l1.256,0.623c0.058,0.029,0.103,0.062,0.135,0.099c0.032,0.035,0.051,0.073,0.056,0.111C49.867,54.919,49.858,54.957,49.835,54.992z   M47.099,53.63c-0.023,0.034-0.061,0.066-0.112,0.095l-1.121,0.617c-0.052,0.028-0.113,0.05-0.179,0.064  c-0.066,0.014-0.137,0.021-0.208,0.021s-0.143-0.008-0.211-0.021c-0.067-0.015-0.132-0.036-0.188-0.064l-1.21-0.618  c-0.056-0.027-0.098-0.061-0.126-0.095c-0.029-0.035-0.044-0.071-0.046-0.108s0.01-0.073,0.034-0.107  c0.025-0.035,0.063-0.067,0.116-0.095l1.122-0.6c0.052-0.027,0.111-0.048,0.176-0.062s0.134-0.021,0.204-0.021  c0.069,0,0.14,0.007,0.206,0.021s0.129,0.034,0.185,0.062l1.209,0.601c0.056,0.027,0.099,0.06,0.129,0.095  c0.029,0.034,0.047,0.071,0.05,0.107C47.133,53.559,47.122,53.595,47.099,53.63z M44.463,52.316  c-0.024,0.034-0.062,0.065-0.113,0.092l-1.123,0.595c-0.053,0.027-0.113,0.048-0.179,0.062s-0.135,0.021-0.204,0.021  c-0.07,0-0.14-0.007-0.206-0.021s-0.128-0.034-0.183-0.062l-1.166-0.595c-0.053-0.026-0.094-0.059-0.12-0.092  c-0.027-0.033-0.041-0.068-0.041-0.104c-0.001-0.035,0.012-0.07,0.038-0.104c0.025-0.033,0.064-0.063,0.117-0.091l1.123-0.577  c0.052-0.026,0.111-0.046,0.175-0.06c0.064-0.014,0.132-0.02,0.2-0.02s0.138,0.006,0.202,0.02s0.126,0.033,0.18,0.06l1.165,0.578  c0.054,0.027,0.095,0.058,0.123,0.091s0.043,0.069,0.045,0.104S44.487,52.283,44.463,52.316z M41.922,51.052  c-0.025,0.032-0.063,0.062-0.114,0.088l-1.124,0.573c-0.053,0.026-0.113,0.046-0.178,0.06c-0.064,0.013-0.133,0.02-0.201,0.02  c-0.069,0-0.138-0.007-0.202-0.021s-0.125-0.033-0.178-0.06l-1.123-0.574c-0.052-0.025-0.09-0.056-0.115-0.088  c-0.024-0.032-0.037-0.066-0.036-0.101c0.001-0.033,0.015-0.067,0.041-0.1s0.066-0.062,0.118-0.088l1.125-0.557  c0.051-0.025,0.109-0.045,0.173-0.058s0.13-0.019,0.197-0.019s0.135,0.006,0.197,0.019c0.063,0.013,0.122,0.032,0.174,0.058  l1.123,0.558c0.053,0.025,0.092,0.056,0.118,0.088s0.04,0.066,0.041,0.101S41.947,51.02,41.922,51.052z M36.395,50.562  c0.063-0.013,0.132-0.02,0.199-0.02c0.066,0,0.134,0.007,0.196,0.02s0.121,0.032,0.172,0.058l1.1,0.565  c0.051,0.025,0.089,0.056,0.114,0.089c0.024,0.032,0.036,0.066,0.035,0.101c-0.001,0.035-0.015,0.069-0.042,0.102  c-0.027,0.033-0.066,0.063-0.12,0.09l-1.163,0.579c-0.054,0.027-0.115,0.048-0.182,0.062c-0.065,0.014-0.135,0.021-0.204,0.021  s-0.138-0.007-0.202-0.021s-0.124-0.033-0.175-0.061l-1.1-0.581c-0.05-0.026-0.087-0.057-0.11-0.089  c-0.023-0.033-0.033-0.067-0.03-0.103c0.003-0.034,0.019-0.068,0.047-0.102c0.029-0.032,0.07-0.062,0.124-0.089l1.163-0.563  C36.27,50.595,36.33,50.575,36.395,50.562z M35.036,52.049c0.063,0.014,0.123,0.034,0.174,0.061l1.11,0.59  c0.051,0.027,0.089,0.06,0.114,0.094c0.024,0.033,0.035,0.069,0.033,0.105s-0.017,0.071-0.045,0.106  c-0.029,0.033-0.07,0.065-0.126,0.093l-1.204,0.606c-0.056,0.028-0.12,0.049-0.188,0.063c-0.067,0.014-0.139,0.021-0.209,0.021  s-0.141-0.007-0.206-0.021c-0.064-0.014-0.125-0.034-0.177-0.062l-1.108-0.607c-0.051-0.027-0.088-0.06-0.111-0.094  c-0.022-0.034-0.032-0.07-0.029-0.106c0.004-0.036,0.021-0.071,0.051-0.105s0.073-0.065,0.129-0.093l1.203-0.589  c0.056-0.027,0.117-0.047,0.184-0.061c0.065-0.014,0.135-0.021,0.204-0.021S34.973,52.035,35.036,52.049z M35.472,54.076  c0.029-0.035,0.072-0.068,0.128-0.097l1.205-0.61c0.055-0.028,0.117-0.049,0.184-0.062c0.067-0.014,0.138-0.021,0.208-0.021  s0.14,0.007,0.205,0.021c0.065,0.015,0.127,0.035,0.18,0.063l1.15,0.611c0.053,0.028,0.093,0.061,0.119,0.096  s0.039,0.072,0.038,0.11c-0.001,0.037-0.015,0.074-0.043,0.109c-0.027,0.035-0.069,0.068-0.124,0.098l-1.205,0.628  c-0.057,0.029-0.12,0.052-0.188,0.066s-0.141,0.021-0.213,0.021c-0.071,0-0.143-0.007-0.21-0.021  c-0.066-0.016-0.129-0.037-0.183-0.066l-1.149-0.629c-0.053-0.029-0.091-0.062-0.116-0.098c-0.024-0.035-0.035-0.072-0.033-0.11  C35.427,54.148,35.442,54.111,35.472,54.076z M37.915,55.409c0.029-0.036,0.071-0.07,0.127-0.101l1.206-0.633  c0.055-0.029,0.118-0.051,0.186-0.065s0.139-0.021,0.21-0.021s0.143,0.008,0.21,0.022c0.067,0.014,0.13,0.036,0.185,0.064  l1.193,0.635c0.056,0.029,0.097,0.063,0.125,0.1s0.042,0.075,0.043,0.114c0.001,0.038-0.013,0.077-0.04,0.113  c-0.027,0.037-0.068,0.071-0.123,0.101l-1.205,0.653c-0.056,0.03-0.121,0.053-0.189,0.068c-0.069,0.015-0.143,0.022-0.216,0.022  s-0.146-0.008-0.215-0.022c-0.068-0.016-0.133-0.038-0.188-0.068l-1.193-0.653c-0.054-0.03-0.095-0.064-0.121-0.101  c-0.026-0.037-0.039-0.076-0.038-0.115C37.872,55.484,37.887,55.445,37.915,55.409z M40.452,56.793  c0.028-0.038,0.07-0.073,0.126-0.104l1.205-0.658c0.056-0.03,0.119-0.053,0.188-0.067c0.067-0.015,0.14-0.022,0.213-0.022  c0.072,0,0.146,0.008,0.214,0.022c0.069,0.015,0.134,0.037,0.19,0.067l1.238,0.658c0.058,0.03,0.102,0.066,0.131,0.104  c0.03,0.038,0.046,0.078,0.048,0.118c0.002,0.041-0.01,0.081-0.036,0.119s-0.066,0.073-0.121,0.104l-1.205,0.678  c-0.056,0.031-0.121,0.055-0.19,0.071c-0.07,0.016-0.145,0.023-0.219,0.023c-0.075,0-0.149-0.008-0.221-0.023  c-0.07-0.017-0.136-0.04-0.193-0.071l-1.239-0.679c-0.057-0.03-0.1-0.066-0.128-0.104c-0.027-0.038-0.042-0.078-0.042-0.118  S40.425,56.83,40.452,56.793z M43.085,58.229c0.027-0.039,0.068-0.075,0.125-0.107l1.204-0.684c0.055-0.031,0.119-0.055,0.188-0.07  c0.069-0.015,0.143-0.022,0.217-0.022s0.149,0.008,0.22,0.023c0.071,0.016,0.138,0.039,0.196,0.07l1.287,0.684  c0.06,0.032,0.105,0.068,0.137,0.107c0.032,0.039,0.05,0.081,0.054,0.123s-0.007,0.084-0.033,0.123  c-0.025,0.04-0.064,0.077-0.12,0.108l-1.202,0.705c-0.057,0.033-0.122,0.058-0.192,0.074c-0.07,0.016-0.146,0.024-0.222,0.024  s-0.153-0.009-0.226-0.024c-0.072-0.017-0.141-0.041-0.2-0.074l-1.288-0.705c-0.059-0.032-0.104-0.069-0.134-0.108  c-0.03-0.04-0.046-0.082-0.048-0.124C43.046,58.31,43.059,58.269,43.085,58.229z M58.537,63.697  c-0.071,0.019-0.149,0.028-0.23,0.028c-0.08,0-0.162-0.009-0.242-0.027c-0.079-0.019-0.156-0.046-0.226-0.082l-1.488-0.786  c-0.067-0.036-0.121-0.077-0.16-0.121c-0.038-0.044-0.062-0.091-0.072-0.138c-0.009-0.047-0.003-0.093,0.019-0.137  c0.022-0.044,0.06-0.085,0.112-0.12l1.145-0.762c0.053-0.034,0.115-0.061,0.186-0.077c0.069-0.018,0.146-0.026,0.224-0.026  s0.158,0.009,0.235,0.026c0.077,0.017,0.152,0.043,0.22,0.077l1.482,0.762c0.068,0.035,0.124,0.076,0.165,0.119  c0.04,0.044,0.067,0.091,0.078,0.137c0.012,0.047,0.008,0.094-0.011,0.138c-0.02,0.044-0.056,0.085-0.107,0.121l-1.139,0.786  C58.674,63.651,58.609,63.679,58.537,63.697z M59.28,64.089c0.021-0.046,0.057-0.089,0.109-0.125l1.138-0.793  c0.028-0.021,0.062-0.037,0.097-0.051c0.011-0.005,0.023-0.009,0.036-0.013c0.024-0.009,0.051-0.017,0.077-0.022  c0.015-0.003,0.029-0.006,0.044-0.008c0.027-0.005,0.054-0.008,0.082-0.011c0.017-0.001,0.032-0.002,0.049-0.002  c0.028-0.001,0.059,0,0.088,0.001c0.017,0.001,0.032,0.001,0.049,0.003c0.012,0.001,0.023,0.003,0.036,0.005  c0.025,0.003,0.051,0.008,0.076,0.013c0.013,0.003,0.025,0.006,0.038,0.009c0.025,0.006,0.05,0.014,0.074,0.021  c0.012,0.004,0.022,0.007,0.033,0.011c0.035,0.013,0.069,0.027,0.102,0.044l1.544,0.792c0.072,0.037,0.131,0.08,0.174,0.126  c0.044,0.045,0.073,0.094,0.087,0.143s0.013,0.098-0.006,0.143c-0.018,0.046-0.052,0.089-0.104,0.127l-1.131,0.819  c-0.052,0.038-0.117,0.066-0.189,0.086c-0.072,0.019-0.151,0.028-0.234,0.028c-0.082,0-0.167-0.01-0.249-0.028  c-0.082-0.02-0.162-0.048-0.234-0.086l-1.551-0.819c-0.07-0.037-0.127-0.08-0.169-0.126c-0.041-0.046-0.067-0.095-0.079-0.144  C59.256,64.183,59.26,64.134,59.28,64.089z M65.245,61.679c-0.046,0.012-0.097,0.018-0.148,0.018c-0.053,0-0.106-0.006-0.159-0.018  s-0.104-0.029-0.151-0.052l-1.851-0.913c-0.046-0.022-0.083-0.048-0.11-0.076c-0.027-0.027-0.046-0.058-0.055-0.087  c-0.008-0.029-0.007-0.06,0.005-0.087c0.011-0.027,0.033-0.054,0.065-0.076l0.472-0.323c0.032-0.022,0.073-0.04,0.118-0.051  s0.094-0.017,0.146-0.017c0.051,0,0.104,0.006,0.154,0.017c0.052,0.012,0.102,0.028,0.147,0.051l1.846,0.896  c0.047,0.023,0.085,0.049,0.114,0.077c0.028,0.028,0.049,0.059,0.058,0.088c0.011,0.03,0.011,0.061,0,0.089  s-0.031,0.055-0.063,0.077l-0.469,0.335C65.33,61.649,65.29,61.667,65.245,61.679z M57.338,57.047  c-0.013,0.025-0.035,0.049-0.068,0.069l-0.479,0.3c-0.033,0.021-0.073,0.036-0.117,0.047s-0.093,0.016-0.142,0.016  c-0.05,0-0.101-0.005-0.149-0.016c-0.048-0.011-0.096-0.026-0.138-0.047l-1.661-0.818c-0.041-0.021-0.073-0.044-0.097-0.069  c-0.023-0.024-0.037-0.051-0.042-0.078c-0.006-0.026-0.001-0.053,0.013-0.077c0.014-0.025,0.037-0.049,0.07-0.068l0.48-0.291  c0.032-0.021,0.072-0.035,0.116-0.045c0.043-0.01,0.091-0.016,0.14-0.016c0.048,0.001,0.098,0.006,0.146,0.016  c0.047,0.01,0.093,0.025,0.134,0.045l1.658,0.806c0.042,0.021,0.075,0.044,0.1,0.069s0.04,0.052,0.047,0.079  C57.354,56.994,57.352,57.021,57.338,57.047z M54.684,55.754c-0.014,0.024-0.037,0.047-0.07,0.067l-0.48,0.289  c-0.033,0.021-0.073,0.035-0.117,0.045s-0.091,0.015-0.14,0.015s-0.099-0.005-0.146-0.015c-0.048-0.011-0.093-0.025-0.134-0.046  l-1.604-0.79c-0.039-0.02-0.07-0.042-0.092-0.066c-0.022-0.023-0.035-0.049-0.04-0.075c-0.004-0.025,0.001-0.051,0.016-0.075  c0.015-0.023,0.038-0.046,0.071-0.065l0.482-0.281c0.033-0.02,0.073-0.034,0.116-0.043c0.043-0.01,0.09-0.015,0.138-0.015  s0.096,0.005,0.143,0.015c0.046,0.01,0.091,0.023,0.13,0.043l1.601,0.778c0.041,0.02,0.072,0.042,0.096,0.066  s0.038,0.051,0.043,0.076C54.701,55.703,54.697,55.729,54.684,55.754z M49.64,53.297c-0.015,0.023-0.039,0.045-0.072,0.063  l-0.483,0.27c-0.034,0.019-0.073,0.033-0.116,0.042c-0.043,0.01-0.089,0.015-0.136,0.015c-0.048,0-0.095-0.005-0.141-0.015  c-0.045-0.009-0.088-0.023-0.126-0.042l-1.499-0.738c-0.037-0.019-0.065-0.04-0.085-0.062s-0.03-0.046-0.033-0.07  c-0.002-0.023,0.005-0.048,0.02-0.07c0.016-0.022,0.04-0.043,0.073-0.062l0.485-0.263c0.033-0.018,0.072-0.031,0.115-0.041  c0.042-0.009,0.088-0.013,0.134-0.013s0.093,0.004,0.137,0.014c0.044,0.009,0.086,0.022,0.123,0.04l1.497,0.728  c0.038,0.019,0.068,0.04,0.089,0.062c0.021,0.023,0.033,0.047,0.036,0.071S49.654,53.274,49.64,53.297z M42.692,49.879  c0.001-0.004,0.003-0.008,0.004-0.012C42.695,49.871,42.693,49.875,42.692,49.879z M42.696,49.867  c-0.001,0.004-0.003,0.008-0.004,0.012c-0.004,0.01-0.009,0.019-0.016,0.027c-0.016,0.021-0.041,0.04-0.074,0.057l-0.486,0.245  c-0.033,0.017-0.072,0.029-0.114,0.037c-0.042,0.009-0.086,0.013-0.131,0.013s-0.09-0.004-0.132-0.013  c-0.042-0.008-0.082-0.021-0.117-0.038l-1.357-0.669c-0.033-0.017-0.059-0.036-0.076-0.057c-0.017-0.021-0.025-0.042-0.025-0.064  c0-0.021,0.009-0.043,0.025-0.063s0.042-0.039,0.075-0.056l0.487-0.238c0.033-0.017,0.071-0.029,0.113-0.037  c0.041-0.008,0.085-0.012,0.129-0.012s0.088,0.004,0.13,0.013c0.041,0.008,0.08,0.021,0.114,0.037l1.356,0.659  c0.035,0.017,0.062,0.036,0.079,0.057s0.026,0.043,0.027,0.064C42.701,49.85,42.698,49.858,42.696,49.867z M37.008,48.384  c0.049,0.024,0.084,0.053,0.107,0.082c0.023,0.03,0.034,0.062,0.033,0.094c-0.002,0.031-0.017,0.063-0.043,0.093  c-0.026,0.03-0.065,0.059-0.117,0.083l-1.123,0.532c-0.052,0.025-0.111,0.044-0.175,0.056c-0.063,0.013-0.13,0.019-0.195,0.019  c-0.066,0-0.132-0.006-0.193-0.019s-0.118-0.031-0.167-0.056l-1.046-0.534c-0.048-0.023-0.083-0.052-0.104-0.082  c-0.022-0.03-0.032-0.062-0.029-0.093c0.003-0.032,0.02-0.064,0.047-0.094s0.067-0.058,0.12-0.081l1.122-0.52  c0.052-0.023,0.11-0.041,0.172-0.053s0.127-0.018,0.191-0.018c0.065,0,0.129,0.005,0.189,0.017c0.06,0.013,0.116,0.03,0.164,0.054  L37.008,48.384z M32.753,50.835c0.062,0.013,0.12,0.032,0.169,0.059l1.07,0.569c0.05,0.026,0.087,0.057,0.109,0.09  c0.023,0.032,0.034,0.067,0.03,0.102c-0.003,0.035-0.019,0.07-0.048,0.103c-0.029,0.033-0.071,0.063-0.126,0.091l-1.202,0.584  c-0.057,0.027-0.119,0.048-0.187,0.062c-0.066,0.014-0.137,0.021-0.206,0.021s-0.139-0.008-0.202-0.021s-0.123-0.034-0.172-0.061  l-1.069-0.586c-0.049-0.026-0.084-0.058-0.105-0.091c-0.021-0.032-0.03-0.067-0.025-0.102c0.005-0.035,0.022-0.069,0.054-0.103  c0.03-0.032,0.073-0.062,0.129-0.089l1.201-0.569c0.055-0.025,0.117-0.045,0.183-0.058c0.064-0.013,0.133-0.02,0.201-0.02  C32.624,50.815,32.69,50.822,32.753,50.835z M30.909,52.728c0.057-0.027,0.121-0.048,0.188-0.062s0.138-0.021,0.208-0.021  c0.069,0,0.139,0.007,0.202,0.021s0.123,0.034,0.172,0.062l1.09,0.601c0.051,0.028,0.088,0.061,0.11,0.095  c0.023,0.034,0.032,0.071,0.028,0.108c-0.004,0.036-0.021,0.073-0.052,0.107c-0.03,0.035-0.074,0.067-0.132,0.096l-1.246,0.617  c-0.059,0.029-0.123,0.051-0.192,0.064c-0.068,0.015-0.141,0.021-0.212,0.021s-0.142-0.007-0.207-0.021  c-0.065-0.014-0.125-0.036-0.175-0.064l-1.088-0.618c-0.05-0.028-0.085-0.061-0.107-0.095c-0.021-0.035-0.029-0.072-0.023-0.108  c0.005-0.037,0.024-0.073,0.056-0.108c0.032-0.034,0.077-0.066,0.135-0.095L30.909,52.728z M30.509,52.341  c-0.031,0.033-0.075,0.064-0.132,0.092l-1.244,0.595c-0.058,0.027-0.123,0.048-0.19,0.062c-0.068,0.014-0.14,0.021-0.21,0.021  c-0.069,0-0.139-0.007-0.201-0.021c-0.063-0.014-0.122-0.034-0.171-0.062l-1.048-0.596c-0.048-0.027-0.082-0.059-0.102-0.092  c-0.021-0.034-0.027-0.069-0.021-0.104s0.026-0.071,0.059-0.104s0.078-0.063,0.136-0.091l1.241-0.578  c0.057-0.026,0.12-0.046,0.187-0.06c0.067-0.013,0.137-0.02,0.205-0.02s0.136,0.007,0.198,0.02c0.062,0.014,0.119,0.033,0.167,0.06  l1.051,0.579c0.049,0.027,0.084,0.058,0.105,0.091s0.029,0.069,0.024,0.104S30.54,52.308,30.509,52.341z M27.281,52.898  c0.048,0.027,0.082,0.06,0.103,0.093c0.021,0.034,0.026,0.071,0.021,0.107c-0.007,0.036-0.027,0.072-0.06,0.106  c-0.033,0.034-0.079,0.066-0.139,0.094l-1.287,0.61c-0.06,0.028-0.127,0.05-0.196,0.063c-0.07,0.015-0.143,0.021-0.213,0.021  c-0.071,0-0.141-0.007-0.204-0.021c-0.064-0.014-0.122-0.035-0.17-0.063l-1.033-0.61c-0.048-0.027-0.08-0.06-0.099-0.094  c-0.02-0.034-0.024-0.071-0.016-0.107s0.03-0.072,0.065-0.106c0.034-0.034,0.082-0.066,0.142-0.094l1.284-0.593  c0.059-0.026,0.124-0.047,0.191-0.061c0.068-0.014,0.139-0.021,0.208-0.021c0.068,0,0.137,0.007,0.198,0.021  c0.062,0.014,0.119,0.034,0.167,0.061L27.281,52.898z M28.485,55.599c0.034-0.037,0.081-0.071,0.141-0.102l1.292-0.637  c0.06-0.029,0.126-0.051,0.195-0.065s0.142-0.021,0.214-0.021c0.071,0,0.142,0.008,0.208,0.022c0.065,0.015,0.125,0.036,0.176,0.065  l1.742,0.996c0.053,0.03,0.09,0.064,0.114,0.102s0.034,0.076,0.03,0.116c-0.004,0.039-0.022,0.079-0.054,0.116  c-0.032,0.037-0.077,0.071-0.137,0.102l-1.295,0.663c-0.061,0.031-0.129,0.055-0.2,0.069c-0.071,0.016-0.146,0.023-0.221,0.023  s-0.147-0.008-0.215-0.023s-0.129-0.038-0.182-0.069l-1.738-1.026c-0.051-0.03-0.087-0.064-0.108-0.102s-0.029-0.076-0.022-0.115  C28.432,55.674,28.452,55.635,28.485,55.599z M31.983,55.085c-0.052-0.029-0.089-0.062-0.112-0.099s-0.032-0.074-0.028-0.112  c0.005-0.038,0.022-0.076,0.055-0.112c0.031-0.035,0.076-0.068,0.134-0.098l1.248-0.622c0.057-0.029,0.121-0.05,0.189-0.064  c0.067-0.015,0.14-0.021,0.21-0.021c0.071,0,0.142,0.007,0.207,0.021c0.065,0.014,0.126,0.035,0.177,0.063l1.131,0.623  c0.053,0.029,0.091,0.062,0.116,0.099c0.024,0.035,0.035,0.073,0.032,0.111c-0.002,0.039-0.019,0.077-0.049,0.113  c-0.03,0.035-0.073,0.069-0.131,0.099l-1.249,0.642c-0.058,0.029-0.123,0.052-0.193,0.066c-0.069,0.015-0.143,0.022-0.215,0.022  c-0.073,0-0.145-0.008-0.212-0.022c-0.066-0.015-0.128-0.037-0.181-0.067L31.983,55.085z M34.354,56.153  c0.031-0.037,0.075-0.072,0.134-0.102l1.249-0.647c0.057-0.029,0.122-0.052,0.19-0.066c0.069-0.015,0.142-0.021,0.214-0.021  c0.072-0.001,0.145,0.007,0.212,0.021c0.066,0.015,0.129,0.037,0.183,0.066l1.175,0.647c0.055,0.029,0.095,0.064,0.121,0.102  s0.039,0.077,0.037,0.116c-0.001,0.04-0.017,0.079-0.046,0.117c-0.029,0.037-0.072,0.072-0.13,0.103l-1.25,0.666  c-0.058,0.031-0.124,0.055-0.194,0.07c-0.071,0.016-0.146,0.023-0.22,0.023c-0.073,0-0.147-0.008-0.216-0.023  s-0.132-0.039-0.187-0.07l-1.174-0.667c-0.054-0.03-0.093-0.065-0.117-0.103c-0.025-0.037-0.036-0.077-0.032-0.116  C34.307,56.229,34.323,56.19,34.354,56.153z M39.563,59.102c0.03-0.04,0.073-0.077,0.132-0.109l1.25-0.7  c0.058-0.031,0.123-0.056,0.194-0.071c0.07-0.017,0.146-0.024,0.22-0.024c0.075,0,0.15,0.008,0.222,0.023  c0.07,0.017,0.138,0.04,0.195,0.072l1.27,0.699c0.059,0.032,0.104,0.07,0.134,0.11s0.046,0.083,0.048,0.126  c0.001,0.043-0.012,0.086-0.039,0.126c-0.028,0.041-0.07,0.079-0.127,0.111l-1.25,0.722c-0.059,0.033-0.126,0.059-0.198,0.075  s-0.148,0.025-0.226,0.025s-0.154-0.009-0.227-0.025s-0.141-0.042-0.2-0.075l-1.27-0.722c-0.058-0.033-0.102-0.07-0.13-0.111  c-0.028-0.04-0.043-0.083-0.042-0.126C39.52,59.185,39.534,59.142,39.563,59.102z M42.328,60.666c0.028-0.041,0.071-0.08,0.13-0.114  l1.25-0.729c0.057-0.033,0.123-0.058,0.194-0.074s0.147-0.025,0.224-0.025c0.077,0,0.154,0.008,0.227,0.024  c0.073,0.017,0.142,0.042,0.202,0.075l1.321,0.728c0.062,0.034,0.108,0.073,0.141,0.115s0.051,0.086,0.054,0.131  s-0.009,0.09-0.035,0.132s-0.068,0.081-0.125,0.115l-1.249,0.752c-0.058,0.035-0.126,0.062-0.198,0.079  c-0.073,0.017-0.151,0.025-0.23,0.025c-0.078,0-0.157-0.009-0.232-0.025c-0.074-0.018-0.145-0.044-0.206-0.079l-1.322-0.752  c-0.061-0.034-0.106-0.073-0.137-0.115c-0.031-0.042-0.047-0.087-0.048-0.131C42.286,60.753,42.3,60.708,42.328,60.666z   M45.207,62.296c0.027-0.043,0.07-0.084,0.128-0.119l1.248-0.759c0.057-0.035,0.124-0.061,0.195-0.078  c0.072-0.018,0.149-0.026,0.228-0.026s0.157,0.009,0.232,0.025c0.075,0.018,0.146,0.044,0.209,0.078l1.377,0.759  c0.063,0.035,0.113,0.076,0.147,0.119c0.035,0.044,0.056,0.091,0.06,0.137c0.005,0.047-0.005,0.094-0.03,0.138  s-0.066,0.085-0.123,0.12l-1.246,0.784c-0.058,0.036-0.126,0.063-0.2,0.082c-0.073,0.019-0.153,0.027-0.233,0.027  s-0.161-0.009-0.238-0.027s-0.149-0.046-0.214-0.082l-1.379-0.783c-0.062-0.036-0.11-0.077-0.144-0.121s-0.051-0.091-0.054-0.137  C45.167,62.386,45.18,62.34,45.207,62.296z M48.208,63.995c0.026-0.046,0.068-0.088,0.126-0.125l1.245-0.791  c0.057-0.036,0.124-0.063,0.197-0.081c0.072-0.019,0.151-0.027,0.23-0.027c0.08,0,0.161,0.009,0.238,0.026s0.151,0.045,0.217,0.081  l1.435,0.791c0.067,0.037,0.119,0.079,0.156,0.125c0.037,0.045,0.06,0.094,0.066,0.143c0.007,0.048-0.002,0.097-0.026,0.143  s-0.064,0.089-0.121,0.126l-1.241,0.818c-0.058,0.038-0.126,0.066-0.201,0.085c-0.074,0.02-0.155,0.029-0.237,0.029  s-0.165-0.01-0.244-0.029c-0.079-0.019-0.155-0.047-0.222-0.085l-1.438-0.817c-0.066-0.037-0.116-0.081-0.152-0.126  c-0.035-0.046-0.055-0.095-0.06-0.144C48.171,64.089,48.182,64.04,48.208,63.995z M51.34,65.768c0.024-0.048,0.066-0.092,0.124-0.13  l1.24-0.826c0.056-0.038,0.124-0.066,0.197-0.085c0.074-0.019,0.154-0.028,0.235-0.028s0.164,0.009,0.244,0.027  c0.079,0.02,0.156,0.047,0.224,0.085l1.498,0.825c0.07,0.039,0.126,0.083,0.166,0.131s0.064,0.099,0.073,0.149  c0.01,0.051,0.003,0.102-0.021,0.149c-0.022,0.048-0.062,0.093-0.118,0.132l-1.235,0.854c-0.058,0.04-0.127,0.07-0.202,0.09  c-0.076,0.02-0.158,0.029-0.242,0.029s-0.169-0.01-0.251-0.03c-0.082-0.02-0.161-0.05-0.231-0.09l-1.502-0.854  c-0.068-0.039-0.122-0.084-0.16-0.131c-0.038-0.048-0.061-0.099-0.067-0.149C51.306,65.865,51.314,65.814,51.34,65.768z   M54.61,67.619c0.023-0.05,0.063-0.097,0.121-0.137l1.234-0.862c0.056-0.04,0.124-0.069,0.198-0.089  c0.075-0.02,0.156-0.029,0.239-0.03c0.083,0,0.168,0.01,0.25,0.029c0.083,0.02,0.162,0.049,0.233,0.089l1.564,0.861  c0.072,0.041,0.131,0.087,0.174,0.137c0.042,0.05,0.07,0.103,0.081,0.156c0.012,0.053,0.008,0.105-0.014,0.156  c-0.021,0.05-0.061,0.097-0.116,0.138l-1.228,0.893c-0.058,0.042-0.127,0.073-0.203,0.094c-0.077,0.021-0.161,0.031-0.246,0.031  c-0.086-0.001-0.174-0.011-0.259-0.031c-0.085-0.021-0.166-0.053-0.239-0.094l-1.57-0.893c-0.071-0.041-0.128-0.088-0.169-0.138  c-0.04-0.05-0.065-0.103-0.074-0.155C54.579,67.721,54.586,67.668,54.61,67.619z M58.179,66.769c-0.072-0.04-0.13-0.085-0.172-0.134  c-0.042-0.048-0.068-0.1-0.079-0.151c-0.011-0.051-0.006-0.102,0.016-0.15c0.021-0.048,0.06-0.093,0.114-0.132l1.183-0.837  c0.054-0.038,0.119-0.066,0.191-0.086c0.073-0.019,0.152-0.028,0.234-0.028s0.166,0.01,0.247,0.028  c0.082,0.02,0.16,0.048,0.232,0.086l1.573,0.836c0.074,0.04,0.133,0.085,0.178,0.133c0.044,0.048,0.073,0.1,0.086,0.15  c0.014,0.052,0.011,0.104-0.008,0.151c-0.02,0.049-0.056,0.094-0.108,0.134l-1.176,0.865c-0.054,0.041-0.121,0.071-0.195,0.091  c-0.075,0.021-0.157,0.03-0.241,0.03s-0.171-0.01-0.256-0.03c-0.084-0.021-0.165-0.051-0.239-0.091L58.179,66.769z M61.304,68.166  c0.021-0.05,0.058-0.097,0.112-0.138l1.172-0.874c0.054-0.04,0.12-0.069,0.193-0.089c0.073-0.021,0.154-0.03,0.237-0.03  c0.084,0,0.17,0.01,0.254,0.03c0.084,0.02,0.166,0.049,0.241,0.089l1.643,0.873c0.076,0.041,0.139,0.088,0.187,0.139  c0.047,0.05,0.079,0.104,0.095,0.157s0.016,0.107-0.002,0.158c-0.018,0.05-0.053,0.098-0.105,0.139l-1.165,0.905  c-0.054,0.042-0.121,0.073-0.196,0.094c-0.075,0.021-0.159,0.032-0.245,0.032s-0.175-0.011-0.262-0.032  c-0.087-0.021-0.172-0.053-0.249-0.095l-1.651-0.904c-0.075-0.041-0.135-0.088-0.18-0.139s-0.074-0.104-0.088-0.158  C61.281,68.27,61.284,68.217,61.304,68.166z M65.356,67.097c-0.052,0.04-0.117,0.07-0.189,0.09c-0.073,0.02-0.154,0.03-0.238,0.03  s-0.171-0.01-0.255-0.029c-0.085-0.02-0.167-0.05-0.242-0.09l-1.618-0.854c-0.073-0.038-0.133-0.083-0.177-0.132  c-0.045-0.048-0.074-0.099-0.088-0.149s-0.011-0.102,0.008-0.149s0.054-0.092,0.106-0.13l1.128-0.827  c0.052-0.037,0.115-0.065,0.187-0.084s0.149-0.028,0.231-0.028c0.081,0,0.165,0.01,0.248,0.028c0.082,0.019,0.162,0.047,0.235,0.085  l1.609,0.826c0.074,0.038,0.136,0.083,0.182,0.13c0.047,0.048,0.078,0.099,0.094,0.148c0.017,0.051,0.017,0.102,0,0.149  s-0.05,0.093-0.101,0.132L65.356,67.097z M68.438,63.137c-0.032,0.024-0.072,0.042-0.118,0.055c-0.046,0.012-0.097,0.018-0.15,0.018  c-0.053,0-0.108-0.006-0.162-0.018c-0.055-0.012-0.107-0.03-0.156-0.055L65.93,62.19c-0.048-0.023-0.087-0.051-0.116-0.08  c-0.029-0.028-0.049-0.06-0.059-0.09s-0.01-0.062,0.001-0.09c0.011-0.029,0.032-0.056,0.064-0.079l0.469-0.336  c0.032-0.023,0.072-0.041,0.117-0.053c0.045-0.011,0.095-0.017,0.146-0.017c0.053,0,0.106,0.006,0.159,0.017  c0.053,0.012,0.104,0.029,0.152,0.053l1.915,0.931c0.049,0.023,0.089,0.051,0.119,0.08s0.052,0.06,0.062,0.091  c0.012,0.031,0.013,0.062,0.003,0.092s-0.03,0.057-0.062,0.081L68.438,63.137z M68.851,63.452c0.01-0.029,0.03-0.058,0.062-0.081  l0.464-0.35c0.032-0.024,0.072-0.042,0.118-0.055c0.045-0.012,0.096-0.018,0.148-0.018c0.054,0,0.108,0.006,0.162,0.018  c0.055,0.013,0.108,0.03,0.157,0.055l1.989,0.967c0.051,0.024,0.093,0.053,0.125,0.083c0.033,0.03,0.056,0.062,0.068,0.095  c0.014,0.032,0.016,0.065,0.007,0.096c-0.008,0.03-0.028,0.06-0.06,0.084l-0.459,0.361c-0.032,0.024-0.072,0.043-0.118,0.056  c-0.047,0.013-0.099,0.019-0.153,0.019c-0.054,0-0.11-0.006-0.167-0.019c-0.056-0.013-0.11-0.031-0.161-0.057l-1.996-0.983  c-0.05-0.024-0.09-0.053-0.121-0.083s-0.052-0.062-0.063-0.094C68.842,63.514,68.841,63.482,68.851,63.452z M34.022,46.32  c0.018-0.019,0.044-0.036,0.077-0.051l0.485-0.217c0.034-0.016,0.071-0.026,0.112-0.033c0.04-0.008,0.082-0.012,0.124-0.012  s0.084,0.004,0.123,0.012c0.038,0.008,0.074,0.019,0.105,0.034l1.237,0.601c0.031,0.016,0.055,0.033,0.069,0.052  c0.016,0.02,0.022,0.039,0.021,0.059c-0.002,0.021-0.011,0.04-0.028,0.06c-0.018,0.019-0.043,0.036-0.076,0.052l-0.486,0.223  c-0.033,0.016-0.072,0.027-0.112,0.034c-0.041,0.008-0.084,0.012-0.126,0.012c-0.043,0-0.086-0.004-0.125-0.012  c-0.04-0.007-0.076-0.019-0.107-0.034l-1.237-0.61c-0.031-0.015-0.054-0.032-0.067-0.051c-0.015-0.019-0.021-0.039-0.019-0.059  C33.995,46.358,34.005,46.339,34.022,46.32z M31.776,47.333c0.028-0.028,0.068-0.056,0.12-0.078l1.121-0.502  c0.052-0.022,0.109-0.039,0.171-0.051s0.126-0.018,0.189-0.018s0.127,0.006,0.186,0.018s0.113,0.028,0.159,0.052l1.012,0.502  c0.047,0.023,0.082,0.05,0.104,0.079c0.021,0.028,0.031,0.06,0.028,0.09c-0.003,0.031-0.018,0.062-0.044,0.091  c-0.027,0.028-0.067,0.056-0.118,0.079l-1.122,0.515c-0.052,0.024-0.111,0.042-0.174,0.054s-0.128,0.018-0.193,0.018  c-0.064,0-0.129-0.006-0.188-0.018c-0.061-0.013-0.115-0.03-0.162-0.054l-1.011-0.516c-0.046-0.023-0.079-0.051-0.101-0.08  c-0.021-0.028-0.028-0.06-0.024-0.09C31.732,47.393,31.748,47.362,31.776,47.333z M29.435,48.381c0.03-0.03,0.072-0.058,0.126-0.082  l1.157-0.518c0.053-0.023,0.112-0.041,0.175-0.053s0.128-0.018,0.193-0.018c0.064,0,0.128,0.006,0.188,0.019  c0.059,0.012,0.114,0.029,0.16,0.053l2.151,1.104c0.047,0.024,0.082,0.053,0.104,0.083c0.021,0.03,0.031,0.062,0.027,0.095  c-0.003,0.032-0.019,0.064-0.047,0.095s-0.068,0.059-0.122,0.084l-1.16,0.541c-0.054,0.024-0.115,0.044-0.18,0.057  c-0.063,0.013-0.132,0.019-0.198,0.019c-0.067,0-0.133-0.006-0.194-0.019c-0.061-0.013-0.117-0.031-0.165-0.057l-2.147-1.134  c-0.046-0.024-0.079-0.053-0.1-0.083c-0.02-0.03-0.026-0.062-0.021-0.094C29.387,48.442,29.405,48.41,29.435,48.381z M27.015,49.463  c0.031-0.03,0.075-0.059,0.131-0.084l1.195-0.535c0.055-0.024,0.116-0.042,0.181-0.055c0.063-0.012,0.13-0.018,0.196-0.018  c0.065,0,0.13,0.006,0.19,0.019c0.06,0.012,0.114,0.03,0.16,0.055l2.724,1.448c0.048,0.025,0.082,0.055,0.104,0.086  c0.021,0.032,0.03,0.065,0.026,0.1c-0.004,0.033-0.021,0.067-0.051,0.099s-0.071,0.062-0.126,0.087l-1.201,0.565  c-0.056,0.026-0.118,0.046-0.185,0.059s-0.136,0.02-0.203,0.02c-0.068,0-0.136-0.007-0.198-0.021  c-0.062-0.013-0.119-0.032-0.167-0.059l-2.718-1.487c-0.046-0.025-0.078-0.055-0.098-0.085c-0.019-0.031-0.025-0.064-0.019-0.097  C26.964,49.526,26.983,49.494,27.015,49.463z M24.451,50.682c0.008-0.034,0.028-0.067,0.062-0.1  c0.033-0.031,0.078-0.062,0.136-0.087l1.236-0.553c0.057-0.025,0.12-0.044,0.186-0.057s0.134-0.02,0.201-0.019  c0.066,0,0.133,0.006,0.192,0.019c0.061,0.013,0.116,0.031,0.162,0.057l1.569,0.865c0.047,0.025,0.08,0.056,0.101,0.088  s0.027,0.066,0.021,0.101c-0.006,0.034-0.024,0.068-0.056,0.101c-0.032,0.032-0.076,0.062-0.133,0.089l-1.241,0.574  c-0.058,0.026-0.122,0.046-0.188,0.06c-0.067,0.013-0.138,0.02-0.207,0.02c-0.068,0-0.136-0.007-0.198-0.021  c-0.062-0.014-0.118-0.033-0.165-0.06l-1.565-0.89c-0.045-0.025-0.077-0.056-0.096-0.088S24.443,50.716,24.451,50.682z   M21.858,51.843c0.01-0.035,0.033-0.07,0.068-0.103c0.035-0.033,0.082-0.064,0.143-0.091l1.278-0.572  c0.059-0.025,0.123-0.045,0.19-0.059c0.067-0.013,0.137-0.02,0.204-0.02c0.068,0,0.134,0.007,0.195,0.021  c0.061,0.013,0.115,0.032,0.161,0.059L25.1,51.65c0.047,0.026,0.079,0.058,0.098,0.09c0.02,0.033,0.024,0.068,0.018,0.103  c-0.008,0.035-0.029,0.07-0.062,0.104s-0.08,0.063-0.138,0.091l-1.283,0.588c-0.06,0.027-0.126,0.048-0.195,0.062  s-0.14,0.021-0.21,0.021c-0.069,0-0.138-0.007-0.199-0.021c-0.062-0.013-0.118-0.034-0.165-0.062l-0.997-0.588  c-0.046-0.027-0.077-0.059-0.095-0.092C21.854,51.913,21.85,51.878,21.858,51.843z M44.9,68.435  c-0.05,0.084-0.127,0.164-0.232,0.232l-10.705,7.007c-0.123,0.081-0.263,0.142-0.411,0.182c-0.148,0.041-0.305,0.062-0.459,0.062  s-0.307-0.021-0.449-0.061c-0.142-0.04-0.271-0.101-0.383-0.181l-13.598-9.892c-0.089-0.064-0.148-0.139-0.18-0.218  s-0.036-0.162-0.014-0.246c0.021-0.083,0.07-0.166,0.143-0.244s0.17-0.15,0.291-0.214l10.565-5.52  c0.104-0.056,0.222-0.097,0.345-0.123c0.123-0.027,0.252-0.041,0.378-0.041c0.127,0,0.252,0.014,0.367,0.041  c0.116,0.027,0.223,0.068,0.313,0.123l13.746,8.341c0.111,0.066,0.195,0.145,0.254,0.228c0.058,0.083,0.09,0.172,0.095,0.261  S44.949,68.351,44.9,68.435z M45.707,65.729c-0.076,0.02-0.158,0.029-0.24,0.029c-0.083,0-0.166-0.01-0.244-0.029  c-0.079-0.019-0.153-0.048-0.219-0.086l-13.356-7.889c-0.053-0.031-0.092-0.067-0.115-0.106c-0.023-0.038-0.033-0.079-0.028-0.12  s0.024-0.082,0.058-0.121c0.032-0.038,0.079-0.074,0.14-0.105l1.296-0.669c0.059-0.03,0.126-0.054,0.196-0.068  c0.07-0.016,0.145-0.023,0.218-0.023s0.146,0.008,0.214,0.023c0.067,0.015,0.13,0.038,0.184,0.068l13.357,7.643  c0.064,0.037,0.115,0.08,0.149,0.126c0.035,0.046,0.055,0.095,0.059,0.144c0.005,0.049-0.007,0.098-0.034,0.144  c-0.026,0.047-0.069,0.09-0.129,0.128l-1.296,0.826C45.854,65.681,45.783,65.71,45.707,65.729z M49.936,68.001  c-0.061,0.041-0.132,0.071-0.21,0.093c-0.077,0.02-0.161,0.03-0.246,0.03s-0.171-0.01-0.253-0.03  c-0.081-0.021-0.159-0.051-0.228-0.092l-2.286-1.35c-0.066-0.039-0.118-0.085-0.153-0.133c-0.035-0.049-0.056-0.101-0.059-0.151  c-0.004-0.052,0.008-0.103,0.036-0.15c0.027-0.049,0.072-0.094,0.133-0.133l1.295-0.835c0.06-0.038,0.129-0.066,0.204-0.085  c0.075-0.02,0.156-0.028,0.238-0.028s0.164,0.01,0.243,0.028c0.079,0.02,0.154,0.048,0.221,0.086l2.281,1.305  c0.068,0.039,0.122,0.085,0.16,0.133c0.038,0.049,0.061,0.101,0.067,0.152s-0.002,0.104-0.027,0.152s-0.067,0.095-0.126,0.135  L49.936,68.001z M52.841,69.926c-0.078,0.021-0.163,0.032-0.25,0.032c-0.086,0-0.175-0.01-0.259-0.031s-0.165-0.053-0.236-0.096  l-1.542-0.91c-0.07-0.042-0.125-0.09-0.163-0.141c-0.039-0.051-0.062-0.105-0.068-0.159c-0.006-0.054,0.004-0.108,0.03-0.159  s0.07-0.099,0.13-0.14l1.291-0.88c0.059-0.04,0.128-0.07,0.205-0.09c0.076-0.021,0.159-0.03,0.243-0.03s0.169,0.011,0.251,0.03  c0.082,0.021,0.16,0.051,0.23,0.091l1.537,0.879c0.071,0.041,0.128,0.088,0.169,0.139s0.065,0.104,0.074,0.158  c0.01,0.055,0.002,0.108-0.022,0.159s-0.065,0.099-0.124,0.141l-1.285,0.911C52.991,69.872,52.92,69.904,52.841,69.926z   M56.195,72.016c-0.053,0.016-0.111,0.022-0.17,0.023c-0.06,0-0.12-0.008-0.178-0.022c-0.059-0.015-0.114-0.037-0.165-0.066  l-1.971-1.164c-0.049-0.029-0.088-0.062-0.115-0.099c-0.027-0.035-0.045-0.073-0.05-0.111c-0.006-0.038-0.001-0.075,0.017-0.11  c0.017-0.036,0.045-0.069,0.085-0.098l0.574-0.412c0.04-0.028,0.088-0.05,0.14-0.063c0.052-0.015,0.108-0.021,0.166-0.021  c0.059,0,0.117,0.008,0.174,0.021c0.057,0.015,0.111,0.036,0.16,0.064l1.967,1.142c0.051,0.029,0.091,0.063,0.119,0.099  c0.029,0.036,0.048,0.074,0.055,0.112c0.008,0.038,0.004,0.077-0.012,0.113c-0.016,0.035-0.043,0.069-0.083,0.099l-0.572,0.427  C56.296,71.979,56.248,72.001,56.195,72.016z M59.511,73.85c-0.081,0.023-0.169,0.035-0.259,0.035c-0.091,0-0.184-0.012-0.273-0.035  c-0.09-0.022-0.177-0.058-0.255-0.104l-1.682-0.993c-0.077-0.046-0.139-0.099-0.183-0.154s-0.072-0.114-0.083-0.174  c-0.011-0.059-0.005-0.117,0.02-0.173c0.023-0.055,0.065-0.106,0.125-0.151l1.276-0.96c0.059-0.043,0.129-0.076,0.207-0.098  s0.163-0.032,0.251-0.032s0.178,0.011,0.265,0.032c0.087,0.022,0.172,0.055,0.248,0.099l1.675,0.958  c0.078,0.045,0.141,0.097,0.187,0.151c0.047,0.055,0.078,0.114,0.092,0.173c0.013,0.059,0.01,0.117-0.012,0.173  c-0.021,0.056-0.06,0.107-0.117,0.153l-1.27,0.994C59.663,73.791,59.591,73.826,59.511,73.85z M63.598,75.269  c-0.014,0.039-0.039,0.076-0.078,0.107l-0.563,0.466c-0.039,0.032-0.088,0.057-0.142,0.072c-0.055,0.017-0.114,0.025-0.176,0.025  c-0.062,0-0.126-0.008-0.188-0.024c-0.062-0.016-0.122-0.04-0.177-0.072l-2.146-1.267c-0.053-0.031-0.096-0.067-0.127-0.106  s-0.051-0.08-0.06-0.121s-0.006-0.082,0.009-0.12c0.016-0.038,0.042-0.075,0.082-0.105l0.568-0.448  c0.039-0.031,0.086-0.054,0.14-0.069c0.053-0.016,0.111-0.023,0.171-0.023c0.061,0,0.122,0.008,0.182,0.022  c0.061,0.016,0.118,0.039,0.172,0.07l2.139,1.241c0.055,0.032,0.099,0.068,0.132,0.107s0.056,0.081,0.066,0.122  C63.612,75.188,63.611,75.229,63.598,75.269z M66.873,72.454c-0.018,0.056-0.054,0.107-0.108,0.153l-1.203,0.991  c-0.056,0.046-0.126,0.08-0.204,0.104s-0.165,0.035-0.256,0.035c-0.09,0-0.184-0.012-0.274-0.035  c-0.091-0.022-0.18-0.058-0.261-0.104l-6.391-3.631c-0.074-0.042-0.134-0.092-0.178-0.144c-0.044-0.053-0.071-0.107-0.083-0.163  s-0.006-0.11,0.016-0.163c0.022-0.052,0.062-0.1,0.118-0.142l1.227-0.901c0.056-0.041,0.124-0.072,0.2-0.093  c0.075-0.021,0.158-0.03,0.243-0.03s0.173,0.01,0.258,0.03s0.167,0.052,0.241,0.092l6.357,3.504  c0.081,0.045,0.146,0.096,0.196,0.151c0.051,0.055,0.084,0.113,0.102,0.172S66.891,72.399,66.873,72.454z M71.833,68.817  c-0.014,0.051-0.045,0.1-0.096,0.141l-3.415,2.829c-0.054,0.044-0.121,0.077-0.197,0.1s-0.161,0.033-0.249,0.033  c-0.089,0-0.181-0.011-0.271-0.033s-0.178-0.056-0.259-0.1l-2.002-1.096c-0.078-0.043-0.143-0.093-0.19-0.146  c-0.049-0.054-0.081-0.109-0.097-0.166c-0.016-0.056-0.015-0.112,0.003-0.165c0.019-0.052,0.054-0.102,0.108-0.144l1.961-1.548  l-0.439-0.232c-0.077-0.041-0.141-0.088-0.188-0.139c-0.048-0.05-0.08-0.104-0.097-0.156c-0.016-0.054-0.016-0.106,0.001-0.156  c0.018-0.05,0.052-0.097,0.104-0.138l1.116-0.866c0.05-0.04,0.114-0.069,0.186-0.089c0.072-0.02,0.152-0.03,0.235-0.03  s0.17,0.011,0.255,0.03s0.168,0.049,0.245,0.089l0.998,0.512l0.412,0.212l1.562,0.802c0.079,0.041,0.146,0.089,0.196,0.139  c0.051,0.051,0.087,0.104,0.106,0.159C71.843,68.713,71.847,68.767,71.833,68.817z M73.998,67.026  c-0.013,0.049-0.043,0.095-0.091,0.135l-1.055,0.873c-0.049,0.041-0.112,0.071-0.184,0.092c-0.072,0.021-0.153,0.03-0.237,0.03  c-0.085,0-0.173-0.01-0.261-0.03c-0.087-0.021-0.173-0.051-0.252-0.091l-3.572-1.823c-0.076-0.039-0.139-0.084-0.187-0.132  s-0.08-0.099-0.098-0.148c-0.017-0.051-0.019-0.102-0.003-0.149s0.048-0.092,0.098-0.13l1.073-0.826  c0.049-0.037,0.11-0.065,0.181-0.084c0.069-0.02,0.147-0.028,0.229-0.028c0.081,0,0.166,0.009,0.25,0.028  c0.083,0.019,0.165,0.047,0.241,0.084l3.549,1.762c0.079,0.039,0.146,0.085,0.196,0.134c0.051,0.048,0.087,0.1,0.107,0.151  C74.005,66.926,74.01,66.978,73.998,67.026z M75.464,65.875c-0.008,0.031-0.026,0.062-0.058,0.087l-0.453,0.376  c-0.031,0.025-0.072,0.045-0.118,0.059c-0.047,0.013-0.1,0.02-0.155,0.02c-0.055,0-0.113-0.007-0.171-0.02  c-0.057-0.014-0.113-0.033-0.166-0.059l-2.076-1.023c-0.052-0.025-0.094-0.055-0.126-0.086c-0.033-0.031-0.056-0.064-0.069-0.098  c-0.013-0.033-0.015-0.066-0.006-0.097c0.009-0.031,0.028-0.061,0.06-0.086l0.458-0.362c0.032-0.025,0.072-0.044,0.118-0.057  s0.098-0.019,0.152-0.019c0.054,0,0.11,0.007,0.166,0.019c0.056,0.013,0.11,0.031,0.161,0.056l2.069,1.006  c0.052,0.025,0.096,0.055,0.13,0.086c0.034,0.032,0.059,0.065,0.073,0.099C75.468,65.81,75.472,65.843,75.464,65.875z   M80.628,66.034c-0.008,0.005-0.016,0.007-0.023,0.012c0.021-0.012,0.042-0.025,0.062-0.038  C80.654,66.017,80.642,66.026,80.628,66.034z M81.032,65.715c-0.013,0.014-0.027,0.024-0.041,0.037  c0.017-0.017,0.034-0.03,0.05-0.048C81.038,65.708,81.035,65.712,81.032,65.715z M81.357,65.272  c-0.007,0.013-0.016,0.022-0.022,0.035c0.015-0.025,0.029-0.053,0.043-0.079C81.371,65.242,81.365,65.259,81.357,65.272z   M78.794,62.313L38.019,43.878l8.333-34.042l44.456,8.423L78.794,62.313z M93.944,15.51c0.044,0.042,0.087,0.087,0.127,0.134  c0,0.002,0.001,0.002,0.002,0.003C94.032,15.599,93.989,15.554,93.944,15.51z M94.413,16.224c0.005,0.011,0.01,0.021,0.015,0.033  c0.012,0.033,0.022,0.067,0.032,0.102C94.445,16.312,94.431,16.267,94.413,16.224z M94.57,17.044  c-0.001-0.045-0.003-0.09-0.006-0.135c0.002,0.031,0.005,0.061,0.006,0.092C94.571,17.015,94.57,17.03,94.57,17.044z"/></svg>